# xmcd
# Copyright (C) 1995-1998 Ti Kan
#
# Track frame offsets:
#       150
#       20228
#       43458
#       57458
#       73221
#       88146
#       108903
#       125989
#       137553
#       148929
#       162035
#       185073
#       196677
#       209368
#       222907
#
# Disc length: 3171 seconds
#
# Revision: 0
# Processed by: cddbd v1.5.2PL0 Copyright (c) Steve Scherf et al.
# Submitted via: CD-Transfer v1.0
#
DISCID=f80c610f
DTITLE=Brazylijskie Rytmy - 
DYEAR=2003
DGENRE=
TTITLE0=Tu Pum Pum
TTITLE1=El Rumberito
TTITLE2=Sopa De Caracol
TTITLE3=La Cosquilla
TTITLE4=Por Una Cerveza
TTITLE5=La Quita Macho
TTITLE6=En Aquellos Anos
TTITLE7=El Coco
TTITLE8=Te Estas Jorobando
TTITLE9=Si Estuvieras
TTITLE10=Poupurri Riverside
TTITLE11=Que Siga El Baile
TTITLE12=La Plancha
TTITLE13=Guayaquil Esta De Fieste
TTITLE14=Sino Me Dan De Berber Lloro
EXTD=
EXTT0=
EXTT1=
EXTT2=
EXTT3=
EXTT4=
EXTT5=
EXTT6=
EXTT7=
EXTT8=
EXTT9=
EXTT10=
EXTT11=
EXTT12=
EXTT13=
EXTT14=
PLAYORDER=
